<?xml version="1.0" encoding="UTF-8"?>
<svg id="Layer_1" data-name="Layer 1" xmlns="http://www.w3.org/2000/svg" xmlns:xlink="http://www.w3.org/1999/xlink" viewBox="0 0 596.39 138.76">
  <defs>
    <style>
      .cls-1 {
        fill: none;
      }

      .cls-2 {
        fill: url(#linear-gradient);
      }

      .cls-3 {
        fill: #1d474d;
      }

      .cls-4 {
        clip-path: url(#clippath);
      }
    </style>
    <clipPath id="clippath">
      <path class="cls-1" d="M551,69.23l-3.25,9.55c-.14.39-.14.84,0,1.23l3.25,9.55c.21.6,1.06.6,1.26,0l3.25-9.55c.14-.39.14-.84,0-1.23l-3.25-9.55c-.11-.3-.36-.46-.63-.46s-.52.16-.63.46M533.88,62.11l-9.06,4.45c-.38.19-.68.49-.87.87l-4.45,9.06c-.28.57.32,1.17.9.9l9.06-4.45c.38-.19.68-.49.87-.87l4.45-9.06c.24-.47-.14-.96-.6-.96-.09,0-.19.02-.3.06M568.13,62.65l4.45,9.06c.19.38.49.68.87.87l9.06,4.45c.57.28,1.17-.32.9-.88l-4.45-9.06c-.19-.38-.49-.68-.87-.87l-9.06-4.45c-.09-.05-.21-.06-.3-.06-.46,0-.82.49-.6.96M516.37,41.38l-9.55,3.25c-.6.21-.6,1.06,0,1.26l9.55,3.25c.39.14.84.14,1.23,0l9.55-3.25c.6-.21.6-1.06,0-1.26l-9.55-3.25c-.21-.06-.41-.09-.62-.09s-.41.03-.62.09M585.15,41.38l-9.55,3.25c-.6.21-.6,1.06,0,1.26l9.55,3.25c.39.14.84.14,1.23,0l9.55-3.25c.3-.11.46-.36.46-.63s-.16-.54-.46-.63l-9.55-3.25c-.21-.06-.41-.09-.62-.09s-.41.03-.62.09M582.51,13.48l-9.06,4.45c-.38.19-.68.49-.87.87l-4.45,9.06c-.28.57.32,1.17.9.9l9.38-4.61c.17-.08.3-.22.38-.38l4.61-9.38c.24-.47-.14-.96-.6-.96-.09,0-.21.02-.3.06M519.48,14.04l4.45,9.06c.19.38.49.68.87.87l9.06,4.45c.57.28,1.17-.32.9-.88l-4.45-9.06c-.19-.38-.49-.68-.87-.87l-9.06-4.45c-.09-.05-.21-.06-.3-.06-.46,0-.82.49-.6.96M551,.46l-3.25,9.55c-.14.39-.14.82,0,1.23l3.25,9.55c.21.6,1.06.6,1.26,0l3.25-9.55c.14-.39.14-.82,0-1.23l-3.25-9.55c-.11-.3-.36-.46-.63-.46s-.52.16-.63.46Z"/>
    </clipPath>
    <linearGradient id="linear-gradient" x1="-694.12" y1="1287.27" x2="-692.54" y2="1287.27" gradientTransform="translate(-72848.6 39578.22) rotate(90) scale(57.02 -57.02)" gradientUnits="userSpaceOnUse">
      <stop offset="0" stop-color="#db7562"/>
      <stop offset=".09" stop-color="#c76a65"/>
      <stop offset=".29" stop-color="#974b6f"/>
      <stop offset=".49" stop-color="#5e287e"/>
      <stop offset=".98" stop-color="#2b454e"/>
      <stop offset="1" stop-color="#2a474c"/>
    </linearGradient>
  </defs>
  <g class="cls-4">
    <rect class="cls-2" x="506.22" width="90.17" height="90.17"/>
  </g>
  <g>
    <path class="cls-3" d="M11.86,119.97c2.91,0,5.32-.48,7.21-1.44,1.9-.96,2.85-2.59,2.85-4.88,0-1.09-.17-2.03-.51-2.81-.34-.78-.9-1.48-1.68-2.11s-1.81-1.22-3.08-1.79c-1.27-.57-2.85-1.25-4.72-2.03-1.51-.62-2.94-1.26-4.29-1.91-1.35-.65-2.55-1.4-3.59-2.26-1.04-.86-1.87-1.88-2.5-3.08-.62-1.2-.94-2.65-.94-4.37,0-3.28,1.23-5.93,3.71-7.96,2.47-2.03,5.86-3.04,10.18-3.04,2.76,0,5.03.23,6.83.7,1.79.47,3.05.88,3.78,1.25l-1.17,4.52c-.62-.31-1.68-.73-3.16-1.25-1.48-.52-3.65-.78-6.51-.78-1.14,0-2.22.12-3.24.35-1.01.23-1.91.6-2.69,1.09-.78.49-1.4,1.12-1.87,1.88-.47.76-.7,1.68-.7,2.77s.21,2.03.62,2.81c.42.78,1.03,1.47,1.83,2.07.81.6,1.79,1.16,2.96,1.67,1.17.52,2.51,1.09,4.02,1.71,1.56.62,3.05,1.26,4.48,1.9,1.43.65,2.69,1.43,3.78,2.34,1.09.91,1.98,2,2.65,3.28.68,1.27,1.01,2.87,1.01,4.8,0,3.64-1.37,6.4-4.1,8.27s-6.46,2.81-11.19,2.81c-3.54,0-6.24-.3-8.11-.9-1.87-.6-3.12-1.05-3.74-1.37l1.33-4.6c.16.1.49.27,1.01.51.52.23,1.22.49,2.11.78.88.29,1.94.53,3.16.74,1.22.21,2.64.31,4.25.31Z"/>
    <path class="cls-3" d="M40.95,137.99h-5.07v-53.35c1.51-.52,3.43-1.01,5.77-1.48,2.34-.47,5.3-.7,8.89-.7,2.96,0,5.65.48,8.07,1.44,2.42.96,4.5,2.35,6.24,4.17,1.74,1.82,3.09,4.03,4.06,6.63.96,2.6,1.44,5.54,1.44,8.81,0,3.07-.4,5.89-1.21,8.46-.81,2.57-1.99,4.78-3.55,6.63-1.56,1.85-3.47,3.29-5.73,4.33-2.26,1.04-4.85,1.56-7.76,1.56-2.65,0-4.95-.38-6.9-1.13-1.95-.75-3.37-1.47-4.25-2.15v16.77ZM40.95,116.31c.47.36,1.05.75,1.76,1.17.7.42,1.52.81,2.46,1.17.94.36,1.95.66,3.04.9,1.09.23,2.23.35,3.43.35,2.5,0,4.59-.43,6.28-1.29,1.69-.86,3.05-2.03,4.09-3.51,1.04-1.48,1.79-3.22,2.26-5.23.47-2,.7-4.12.7-6.36,0-5.3-1.33-9.37-3.98-12.21-2.65-2.83-6.16-4.25-10.53-4.25-2.5,0-4.51.12-6.04.35-1.53.23-2.69.48-3.47.74v28.16Z"/>
    <path class="cls-3" d="M92.51,82.3c2.65,0,4.9.38,6.75,1.13,1.85.75,3.34,1.79,4.48,3.12,1.14,1.33,1.98,2.9,2.5,4.72.52,1.82.78,3.8.78,5.93v25.43c-.52.16-1.27.33-2.26.51-.99.18-2.13.38-3.43.58-1.3.21-2.74.38-4.33.51-1.59.13-3.21.19-4.88.19-2.13,0-4.09-.23-5.89-.7-1.79-.47-3.35-1.21-4.68-2.22-1.33-1.01-2.37-2.31-3.12-3.9-.75-1.59-1.13-3.52-1.13-5.81s.42-4.06,1.25-5.62c.83-1.56,2-2.85,3.51-3.86,1.51-1.01,3.3-1.75,5.38-2.22,2.08-.47,4.34-.7,6.79-.7.73,0,1.49.04,2.3.12.81.08,1.59.18,2.34.31.75.13,1.4.26,1.95.39.55.13.92.25,1.13.35v-2.5c0-1.4-.1-2.77-.31-4.1-.21-1.33-.66-2.52-1.37-3.59-.7-1.07-1.69-1.92-2.96-2.57-1.27-.65-2.95-.97-5.03-.97-2.96,0-5.17.21-6.63.62-1.46.42-2.52.75-3.2,1.01l-.7-4.45c.88-.42,2.25-.81,4.1-1.17,1.85-.36,4.07-.55,6.67-.55ZM92.98,119.9c1.98,0,3.71-.06,5.19-.19,1.48-.13,2.74-.3,3.78-.51v-14.2c-.57-.26-1.48-.53-2.73-.82-1.25-.29-2.96-.43-5.15-.43-1.25,0-2.55.09-3.9.27-1.35.18-2.6.57-3.74,1.17-1.14.6-2.08,1.42-2.81,2.46-.73,1.04-1.09,2.42-1.09,4.13,0,1.51.25,2.78.74,3.82.49,1.04,1.2,1.87,2.11,2.5.91.62,2,1.08,3.28,1.36,1.27.29,2.72.43,4.33.43Z"/>
    <path class="cls-3" d="M132.6,82.46c1.66,0,3.24.13,4.72.39,1.48.26,2.51.52,3.08.78l-1.01,4.37c-.42-.21-1.26-.43-2.54-.66-1.27-.23-2.95-.35-5.03-.35-2.18,0-3.94.16-5.26.47-1.33.31-2.2.57-2.61.78v35.33h-5.07v-38.45c1.3-.57,3.09-1.16,5.38-1.75,2.29-.6,5.07-.9,8.35-.9Z"/>
    <path class="cls-3" d="M157.09,101.6c1.84,1.29,3.69,2.79,5.57,4.48,1.87,1.7,3.72,3.53,5.54,5.51,1.82,1.98,3.53,4.01,5.14,6.09,1.61,2.08,2.98,4.04,4.11,5.87h-6.09c-1.22-2.05-2.64-4.06-4.25-6.03-1.61-1.97-3.3-3.83-5.07-5.57-1.77-1.74-3.54-3.33-5.31-4.76-1.77-1.43-3.34-2.51-4.7-3.23v19.59h-5.07v-59.59l5.07-.94v37.57c1.08-.93,2.44-2.2,4.06-3.8,1.62-1.6,3.27-3.22,4.95-4.84,1.68-1.62,3.27-3.2,4.76-4.72,1.49-1.52,2.74-2.86,3.76-4.01h6.2c-1.19,1.25-2.56,2.64-4.11,4.16-1.55,1.52-3.16,3.11-4.83,4.76-1.68,1.65-3.33,3.28-4.95,4.88-1.62,1.6-3.21,3.12-4.75,4.57Z"/>
    <path class="cls-3" d="M194.69,124.26c-1.72-.05-3.21-.27-4.48-.66-1.27-.39-2.34-.99-3.2-1.79-.86-.81-1.51-1.85-1.95-3.12-.44-1.27-.66-2.87-.66-4.8v-49.92l5.07-.94v50.7c0,1.25.12,2.25.35,3,.23.75.59,1.35,1.05,1.79.47.44,1.08.77,1.83.97.75.21,1.65.39,2.69.55l-.7,4.21Z"/>
    <path class="cls-3" d="M200.85,103.36c0-3.54.51-6.62,1.52-9.24,1.01-2.63,2.34-4.82,3.98-6.59,1.64-1.77,3.51-3.08,5.62-3.94,2.11-.86,4.28-1.29,6.51-1.29,4.94,0,8.88,1.61,11.82,4.84,2.94,3.22,4.41,8.19,4.41,14.9,0,.42-.01.83-.04,1.25-.03.42-.07.81-.12,1.17h-28.31c.16,4.94,1.38,8.74,3.67,11.39,2.29,2.65,5.93,3.98,10.92,3.98,2.76,0,4.94-.26,6.55-.78,1.61-.52,2.78-.96,3.51-1.33l.94,4.37c-.73.42-2.09.91-4.09,1.48-2,.57-4.36.86-7.06.86-3.54,0-6.55-.52-9.05-1.56-2.5-1.04-4.55-2.5-6.16-4.37-1.61-1.87-2.78-4.1-3.51-6.67-.73-2.57-1.09-5.39-1.09-8.46ZM229.47,100.16c-.1-4.21-1.09-7.49-2.96-9.83s-4.52-3.51-7.96-3.51c-1.82,0-3.45.36-4.88,1.09-1.43.73-2.68,1.7-3.74,2.92-1.07,1.22-1.9,2.64-2.5,4.25-.6,1.61-.95,3.3-1.05,5.07h23.09Z"/>
    <path class="cls-3" d="M253.18,119.97c2.91,0,5.32-.48,7.21-1.44,1.9-.96,2.85-2.59,2.85-4.88,0-1.09-.17-2.03-.51-2.81-.34-.78-.9-1.48-1.68-2.11s-1.81-1.22-3.08-1.79c-1.27-.57-2.85-1.25-4.72-2.03-1.51-.62-2.94-1.26-4.29-1.91-1.35-.65-2.55-1.4-3.59-2.26-1.04-.86-1.87-1.88-2.5-3.08-.62-1.2-.94-2.65-.94-4.37,0-3.28,1.23-5.93,3.71-7.96,2.47-2.03,5.86-3.04,10.18-3.04,2.76,0,5.03.23,6.83.7,1.79.47,3.05.88,3.78,1.25l-1.17,4.52c-.62-.31-1.68-.73-3.16-1.25-1.48-.52-3.65-.78-6.51-.78-1.14,0-2.22.12-3.24.35-1.01.23-1.91.6-2.69,1.09-.78.49-1.4,1.12-1.87,1.88-.47.76-.7,1.68-.7,2.77s.21,2.03.62,2.81c.42.78,1.03,1.47,1.83,2.07.81.6,1.79,1.16,2.96,1.67,1.17.52,2.51,1.09,4.02,1.71,1.56.62,3.05,1.26,4.48,1.9,1.43.65,2.69,1.43,3.78,2.34,1.09.91,1.98,2,2.65,3.28.68,1.27,1.01,2.87,1.01,4.8,0,3.64-1.37,6.4-4.1,8.27s-6.46,2.81-11.19,2.81c-3.54,0-6.24-.3-8.11-.9-1.87-.6-3.12-1.05-3.74-1.37l1.33-4.6c.16.1.49.27,1.01.51.52.23,1.22.49,2.11.78.88.29,1.94.53,3.16.74,1.22.21,2.64.31,4.25.31Z"/>
    <path class="cls-3" d="M303.42,116.77c2.5,0,4.32-.3,5.46-.9,1.14-.6,1.72-1.62,1.72-3.08,0-1.35-.61-2.47-1.83-3.35-1.22-.88-3.24-1.85-6.04-2.89-1.72-.62-3.29-1.29-4.72-1.99-1.43-.7-2.67-1.52-3.71-2.46-1.04-.94-1.86-2.07-2.46-3.39-.6-1.33-.9-2.95-.9-4.88,0-3.74,1.38-6.69,4.13-8.85,2.76-2.16,6.5-3.24,11.23-3.24,2.39,0,4.68.22,6.86.66,2.18.44,3.82.87,4.91,1.29l-1.72,7.64c-1.04-.47-2.37-.9-3.98-1.29-1.61-.39-3.48-.58-5.62-.58-1.92,0-3.48.33-4.68.98-1.2.65-1.79,1.65-1.79,3,0,.68.12,1.27.35,1.79.23.52.64,1,1.21,1.44.57.44,1.33.88,2.26,1.33.94.44,2.08.9,3.43,1.36,2.24.83,4.13,1.65,5.69,2.46,1.56.81,2.85,1.72,3.86,2.73,1.01,1.01,1.75,2.17,2.22,3.47.47,1.3.7,2.86.7,4.68,0,3.9-1.44,6.85-4.33,8.85-2.89,2-7.01,3-12.36,3-3.59,0-6.47-.3-8.66-.9-2.18-.6-3.72-1.08-4.6-1.44l1.64-7.88c1.4.57,3.08,1.12,5.03,1.64,1.95.52,4.17.78,6.67.78Z"/>
    <path class="cls-3" d="M327.28,72l9.44-1.56v12.32h14.51v7.88h-14.51v16.61c0,3.28.52,5.62,1.56,7.02,1.04,1.4,2.81,2.11,5.3,2.11,1.72,0,3.24-.18,4.56-.55,1.33-.36,2.38-.7,3.16-1.01l1.56,7.49c-1.09.47-2.52.95-4.29,1.44-1.77.49-3.85.74-6.24.74-2.91,0-5.34-.39-7.29-1.17-1.95-.78-3.5-1.91-4.64-3.39-1.14-1.48-1.95-3.28-2.42-5.38-.47-2.11-.7-4.51-.7-7.22v-35.33Z"/>
    <path class="cls-3" d="M392.72,122.31c-1.82.47-4.19.95-7.1,1.44-2.91.49-6.11.74-9.59.74-3.28,0-6.02-.47-8.23-1.4-2.21-.94-3.98-2.24-5.3-3.9-1.33-1.66-2.28-3.65-2.85-5.97-.57-2.31-.86-4.85-.86-7.6v-22.85h9.44v21.37c0,4.37.64,7.49,1.91,9.36,1.27,1.87,3.5,2.81,6.67,2.81,1.14,0,2.35-.05,3.63-.16,1.27-.1,2.22-.23,2.85-.39v-32.99h9.44v39.55Z"/>
    <path class="cls-3" d="M438.12,122.31c-1.87.57-4.23,1.09-7.06,1.56-2.83.47-5.81.7-8.93.7s-6.11-.5-8.66-1.48c-2.55-.99-4.72-2.4-6.51-4.25-1.79-1.84-3.17-4.08-4.13-6.71-.96-2.63-1.44-5.58-1.44-8.85s.4-6.15,1.21-8.78c.81-2.62,1.99-4.88,3.55-6.75,1.56-1.87,3.46-3.32,5.69-4.33,2.24-1.01,4.81-1.52,7.72-1.52,1.98,0,3.72.23,5.23.7,1.51.47,2.81.99,3.9,1.56v-19.58l9.44-1.56v59.28ZM411.05,103.05c0,4.16.99,7.42,2.96,9.79,1.98,2.37,4.71,3.55,8.19,3.55,1.51,0,2.79-.06,3.86-.2,1.07-.13,1.94-.27,2.61-.43v-23.4c-.83-.57-1.94-1.1-3.32-1.6-1.38-.49-2.85-.74-4.41-.74-3.43,0-5.94,1.17-7.53,3.51-1.59,2.34-2.38,5.51-2.38,9.52Z"/>
    <path class="cls-3" d="M459.57,70.83c0,1.77-.57,3.17-1.72,4.21-1.14,1.04-2.5,1.56-4.06,1.56s-2.99-.52-4.13-1.56c-1.14-1.04-1.72-2.44-1.72-4.21s.57-3.25,1.72-4.29c1.14-1.04,2.52-1.56,4.13-1.56s2.91.52,4.06,1.56c1.14,1.04,1.72,2.47,1.72,4.29ZM458.56,123.56h-9.44v-40.79h9.44v40.79Z"/>
    <path class="cls-3" d="M506.37,103.13c0,3.22-.47,6.16-1.4,8.81-.94,2.65-2.26,4.91-3.98,6.79-1.72,1.87-3.78,3.33-6.2,4.37-2.42,1.04-5.08,1.56-8,1.56s-5.57-.52-7.96-1.56c-2.39-1.04-4.45-2.5-6.16-4.37s-3.06-4.13-4.02-6.79-1.44-5.59-1.44-8.81.48-6.15,1.44-8.77c.96-2.63,2.31-4.88,4.06-6.75,1.74-1.87,3.81-3.31,6.2-4.33,2.39-1.01,5.02-1.52,7.88-1.52s5.5.51,7.92,1.52c2.42,1.01,4.48,2.46,6.2,4.33,1.72,1.87,3.05,4.12,4.02,6.75.96,2.63,1.44,5.55,1.44,8.77ZM496.7,103.13c0-4.06-.87-7.27-2.61-9.63-1.74-2.37-4.17-3.55-7.29-3.55s-5.55,1.18-7.29,3.55c-1.74,2.37-2.61,5.58-2.61,9.63s.87,7.36,2.61,9.75c1.74,2.39,4.17,3.59,7.29,3.59s5.55-1.2,7.29-3.59c1.74-2.39,2.61-5.64,2.61-9.75Z"/>
  </g>
</svg>